<?xml version="1.0" encoding="utf-8"?>
<!-- Generator: Adobe Illustrator 21.1.0, SVG Export Plug-In . SVG Version: 6.00 Build 0)  -->
<svg version="1.1" id="Laag_1" xmlns="http://www.w3.org/2000/svg" xmlns:xlink="http://www.w3.org/1999/xlink" x="0px" y="0px"
	 viewBox="0 0 512 512" style="enable-background:new 0 0 512 512;" xml:space="preserve">
<style type="text/css">
	.st0{fill:#666666;}
</style>
<title>d9</title>
<path class="st0" d="M256,0L256,0C114.6,0,0,114.6,0,256l0,0c0,141.4,114.6,256,256,256l0,0c141.4,0,256-114.6,256-256l0,0
	C512,114.6,397.4,0,256,0z M328.8,365.8l-72.7-72.6L183.4,366l-37.2-37.1l72.5-72.5L146,183.6l37.6-37.6l72.4,72.4l72.5-72.4
	l37.3,37.3l-72.7,72.5l72.9,72.7L328.8,365.8z"/>
</svg>
