<?xml version="1.0" encoding="utf-8"?>
<!-- Generator: Adobe Illustrator 24.0.1, SVG Export Plug-In . SVG Version: 6.00 Build 0)  -->
<svg version="1.1" id="Layer_1" xmlns="http://www.w3.org/2000/svg" xmlns:xlink="http://www.w3.org/1999/xlink" x="0px" y="0px"
	 viewBox="0 0 62 58.3" style="enable-background:new 0 0 62 58.3;" xml:space="preserve">
<g>
	<path d="M61,52.4c-5.3,0-5.5,3.9-10,3.9c-4.5,0-4.6-3.9-10-3.9c-5.3,0-5.6,3.9-10,3.9c-4.5,0-4.6-3.9-10-3.9c-5.3,0-5.6,3.9-10,3.9
		c-4.5,0-4.6-3.9-10-3.9c-0.6,0-1,0.4-1,1s0.4,1,1,1c4.5,0,4.6,3.9,10,3.9c5.3,0,5.6-3.9,10-3.9c4.5,0,4.6,3.9,10,3.9
		c5.3,0,5.6-3.9,10-3.9c4.5,0,4.6,3.9,10,3.9c5.4,0,5.5-3.9,10-3.9c0.6,0,1-0.4,1-1S61.6,52.4,61,52.4z"/>
	<path d="M61,44c-5.3,0-5.5,3.9-10,3.9c-4.5,0-4.6-3.9-10-3.9c-0.2,0-0.4,0-0.6,0v-7.9L52,23.3c0.6-0.7,1.1-1.5,1.4-2.4l2.8-9.1
		c0.6-1.9-0.3-4-2.1-4.8c-2.3-1.1-5,0.1-5.7,2.5l-2.4,8c-0.1,0.2-0.2,0.4-0.3,0.6l-5.8,6.8c-0.6,0.7-1.4,1-2.3,1H23.8
		c-0.9,0-1.7-0.4-2.3-1l-5.8-6.8c-0.4-0.5-0.1-0.2-2.8-8.6c-0.5-1.7-2.1-2.9-3.9-2.9c-2.8,0-4.7,2.7-3.9,5.3
		c2.9,8.8,2.7,9.7,4.2,11.4L21,36.1V44c-5.3,0-5.5,3.9-10,3.9C6.5,47.8,6.4,44,1,44c-0.6,0-1,0.4-1,1s0.4,1,1,1
		c4.5,0,4.6,3.9,10,3.9c5.3,0,5.6-3.9,10-3.9c4.5,0,4.6,3.9,10,3.9c5.3,0,5.6-3.9,10-3.9c4.5,0,4.6,3.9,10,3.9c5.4,0,5.5-3.9,10-3.9
		c0.6,0,1-0.4,1-1S61.6,44,61,44z M31,47.8c-4,0-4.3-2.8-8-3.7v-8.5c0-0.2-0.1-0.5-0.3-0.7L10.9,21.9c-1.1-1.2-0.8-1.7-3.8-10.7
		c-0.4-1.3,0.6-2.7,2-2.7c0,0,0,0,0,0c0.9,0,1.7,0.6,2,1.5c2.6,8.2,2.4,8.3,3.2,9.3l5.8,6.8c0.9,1.1,2.3,1.7,3.8,1.7h13.8
		c1.5,0,2.8-0.6,3.8-1.7l5.8-6.8c0.3-0.4,0.6-0.8,0.7-1.3l2.4-8c0.4-1.2,1.7-1.8,2.9-1.3c0.9,0.4,1.4,1.5,1.1,2.5l-2.8,9.1
		c-0.2,0.6-0.5,1.2-0.9,1.6L38.7,35c-0.2,0.2-0.3,0.4-0.3,0.7v8.7C35.2,45.4,34.7,47.8,31,47.8z"/>
	<path d="M23.4,15.8c0,4.2,3.4,7.6,7.6,7.6c4.2,0,7.6-3.4,7.6-7.6c0-4.2-3.4-7.6-7.6-7.6C26.8,8.2,23.4,11.6,23.4,15.8z M31,10.2
		c3.1,0,5.6,2.5,5.6,5.6s-2.5,5.6-5.6,5.6s-5.6-2.5-5.6-5.6S27.9,10.2,31,10.2z"/>
	<path d="M23.1,2.8c-0.4-0.4-1-0.4-1.4,0c-0.4,0.4-0.4,1,0,1.4l2.2,2.2c0.4,0.4,1,0.4,1.4,0c0.4-0.4,0.4-1,0-1.4L23.1,2.8z"/>
	<path d="M32,4.9V1c0-0.6-0.4-1-1-1s-1,0.4-1,1v3.9c0,0.6,0.4,1,1,1S32,5.5,32,4.9z"/>
	<path d="M38.1,6.4l2.2-2.2c0.4-0.4,0.4-1,0-1.4c-0.4-0.4-1-0.4-1.4,0L36.6,5c-0.4,0.4-0.4,1,0,1.4C37,6.8,37.7,6.8,38.1,6.4z"/>
</g>
</svg>
