<?xml version="1.0" encoding="utf-8"?>
<!-- Generator: Adobe Illustrator 24.0.1, SVG Export Plug-In . SVG Version: 6.00 Build 0)  -->
<svg version="1.1" id="Laag_1" xmlns="http://www.w3.org/2000/svg" xmlns:xlink="http://www.w3.org/1999/xlink" x="0px" y="0px"
	 viewBox="0 0 31.3 31.3" style="enable-background:new 0 0 31.3 31.3;" xml:space="preserve">
<style type="text/css">
	.st0{fill:#F7C7D1;stroke:#F7C7D1;stroke-width:2;stroke-linecap:round;stroke-linejoin:round;}
	.st1{fill:none;stroke:#020203;stroke-width:2;stroke-linecap:round;stroke-linejoin:round;stroke-miterlimit:6.6667;}
</style>
<g>
	<path class="st0" d="M21.3,13.7c3.1,0,5.7,2.6,5.7,5.7V26h-3.8v-6.6c0-1-0.9-1.9-1.9-1.9s-1.9,0.9-1.9,1.9V26h-3.8v-6.6
		C15.6,16.2,18.2,13.7,21.3,13.7z"/>
	<rect x="8" y="14.6" class="st0" width="3.8" height="11.4"/>
	<circle class="st0" cx="9.9" cy="9.9" r="1.9"/>
</g>
<g>
	<path class="st1" d="M19.3,11.7c3.1,0,5.7,2.6,5.7,5.7V24h-3.8v-6.6c0-1-0.9-1.9-1.9-1.9s-1.9,0.9-1.9,1.9V24h-3.8v-6.6
		C13.6,14.2,16.2,11.7,19.3,11.7z"/>
	<rect x="6" y="12.6" class="st1" width="3.8" height="11.4"/>
	<circle class="st1" cx="7.9" cy="7.9" r="1.9"/>
</g>
</svg>
